<mxfile host="app.diagrams.net" modified="2023-08-25T00:59:49.666Z" agent="Mozilla/5.0 (Windows NT 10.0; Win64; x64) AppleWebKit/537.36 (KHTML, like Gecko) Chrome/116.0.0.0 Safari/537.36 Edg/116.0.1938.54" version="21.6.9" etag="AwzUiWNwONzlNlRzQJS1" type="github">
  <diagram name="페이지-1" id="nsthZNYcR3cqLZR4O99o">
    <mxGraphModel>
      <root>
        <mxCell id="0" />
        <mxCell id="1" parent="0" />
      </root>
    </mxGraphModel>
  </diagram>
</mxfile>
